<?xml version="1.0" encoding="utf-8"?><!-- Uploaded to: SVG Repo, www.svgrepo.com, Generator: SVG Repo Mixer Tools -->
<svg version="1.1" id="Uploaded to svgrepo.com" xmlns="http://www.w3.org/2000/svg" xmlns:xlink="http://www.w3.org/1999/xlink" 
	 width="800px" height="800px" viewBox="0 0 32 32" xml:space="preserve">
<style type="text/css">
	.linesandangles_een{fill:#111918;}
</style>
<path class="linesandangles_een" d="M20,11.364V10c0-1.862-1.278-3.413-3-3.859V6h3V4h-8v2h3v0.141C13.278,6.587,12,8.138,12,10
	v1.364L3,13v6h9l1.4,6.3L12,26v2h2h1h2h1h2v-2l-1.4-0.7L20,19h9v-6L20,11.364z M5,17v-2.331l7-1.273V17H5z M16.396,26h-0.791
	L14,18.78V11v-1c0-1.103,0.897-2,2-2s2,0.897,2,2v1v7.78L16.396,26z M27,17h-7v-3.604l7,1.273V17z"/>
</svg>